<svg width="3464" height="854" viewBox="0 0 3464 854" fill="none" xmlns="http://www.w3.org/2000/svg">
<path d="M3442.6 187.772L3408.03 270.386C3408.03 270.386 3334.43 236.336 3302.64 236.336C3287.59 236.336 3279.22 250.291 3276.99 265.362C3276.99 265.362 3275.32 288.249 3320.49 289.365C3320.49 289.365 3461 299.971 3461 412.728C3461 418.868 3460.44 425.008 3459.88 431.706C3457.1 500.365 3397.43 564 3295.39 564C3247.44 564 3193.35 550.603 3127.56 517.111C3142.06 485.852 3155.44 459.058 3169.38 427.799C3188.89 441.196 3242.98 466.873 3277.55 466.873C3292.61 466.873 3304.32 461.291 3309.33 448.452C3311.01 429.474 3293.16 426.124 3268.63 422.217C3241.31 417.193 3199.49 410.495 3162.13 378.119C3149.86 368.63 3127 328.997 3127 282.667C3127 222.939 3188.89 142 3295.39 142C3333.31 142 3390.19 150.931 3442.6 187.772Z" fill="#F2CB05"/>
<path d="M2900.5 150C3013.62 150 3105 241.483 3105 354.721C3105 467.959 3013.62 560 2900.5 560C2787.38 560 2696 467.959 2696 354.721C2696 241.483 2787.38 150 2900.5 150ZM2900.5 408.83C2930.03 408.83 2953.99 384.286 2953.99 354.721C2953.99 325.156 2930.03 301.17 2900.5 301.17C2870.97 301.17 2847.01 325.156 2847.01 354.721C2847.01 384.286 2870.97 408.83 2900.5 408.83Z" fill="#F2CB05"/>
<path d="M2370 158H2674V269.588H2599.12V548H2444.88V269.588H2370V158Z" fill="#F2CB05"/>
<path d="M2345 548H2191V158H2345V548Z" fill="#F2CB05"/>
<path d="M2036.25 429.966H2166V547H2036.25H2031.24H1882V158H2036.25V429.966Z" fill="#F2CB05"/>
<path d="M1652 149C1765.39 149 1857 240.483 1857 353.721C1857 466.959 1765.39 559 1652 559C1538.61 559 1447 466.959 1447 353.721C1447 240.483 1538.61 149 1652 149ZM1652 407.83C1681.6 407.83 1705.62 383.286 1705.62 353.721C1705.62 324.156 1681.6 300.17 1652 300.17C1622.4 300.17 1598.38 324.156 1598.38 353.721C1598.38 383.286 1622.4 407.83 1652 407.83Z" fill="#F2CB05"/>
<path d="M1025 159H1174.99L1273.13 326.241V159H1422V547H1263.65L1178.89 395.368V547H1025V159Z" fill="#F2CB05"/>
<path d="M795 149C908.392 149 1000 240.483 1000 353.721C1000 466.959 908.392 559 795 559C681.608 559 590 466.959 590 353.721C590 240.483 681.608 149 795 149ZM795 407.83C824.605 407.83 848.624 383.286 848.624 353.721C848.624 324.156 824.605 300.17 795 300.17C765.395 300.17 741.376 324.156 741.376 353.721C741.376 383.286 765.395 407.83 795 407.83Z" fill="#F2CB05"/>
<path d="M565 546L498.228 157H339.644L284 340.092L228.356 157H69.7723L3 546H160.471L187.423 430.907H163.845L155.15 404.821L198.622 383.082L246.441 443.95H322.516L359.467 383.082L407.529 546H565Z" fill="#F2CB05"/>
<path d="M82.8557 854L0.0273438 660H24.2429L92.7621 825.932L161.556 660H184.946L102.118 854H82.8557Z" fill="#F2CB05"/>
<path d="M684.946 854L772.728 660H793.091L880.873 854H857.482L834.918 803.092H730.075L707.236 854H684.946ZM738.606 783.555H826.387L782.634 685.316L738.606 783.555Z" fill="#F2CB05"/>
<path d="M1380.87 853.312V660.688H1402.61V833.224H1511.03V853.312H1380.87Z" fill="#F2CB05"/>
<path d="M2011.03 853.312V660.688H2032.77V833.224H2141.19V853.312H2011.03Z" fill="#F2CB05"/>
<path d="M2641.19 853.312V660.688H2780.43V680.5H2662.93V746.268H2768.05V766.08H2662.93V833.499H2781.81V853.312H2641.19Z" fill="#F2CB05"/>
<path d="M3361.88 853.312V777.087L3281.81 660.688H3308.22L3373.16 757L3438.66 660.688H3463.97L3383.9 776.812V853.312H3361.88Z" fill="#F2CB05"/>
<path d="M1658 0H1770L1717.5 100H1597L1658 0Z" fill="#F2CB05"/>
</svg>
